<svg class="icon" viewBox="0 0 6826 1024" xmlns="http://www.w3.org/2000/svg" width="399.961" height="60"><defs><style/></defs><path d="M3732.446 495.138c127.556 0 208.657-64.973 208.657-165.24v-2.884c0-105.881-78.217-163.72-210.125-163.72H3497.95c-14.54 0-26.334 11.486-26.334 25.651v280.542c0 14.148 11.793 25.651 26.334 25.651h234.496zM3293.389 30.72c0-14.165 11.776-25.651 26.334-25.651h425.762c127.556 0 227.498 36.676 292.744 98.884 53.624 53.692 84.02 127.044 84.02 213.163V320c0 149.367-84.634 243.849-208.794 288.734-16.316 5.888-22.596 25.088-12.493 38.895l223.505 305.39c12.425 16.982-.034 40.551-21.436 40.551h-145.373c-8.568 0-16.59-4.062-21.504-10.888L3808.137 805.7c-71.1-98.27-186.795-156.74-310.187-156.74-14.54 0-26.334 11.503-26.334 25.651V967.92c0 14.165-11.776 25.651-26.334 25.651h-125.56c-14.54 0-26.333-11.486-26.333-25.651V30.72zm1042.67 769.348h140.084c14.54 0 26.334 11.503 26.334 25.651v142.2c0 14.165-11.793 25.651-26.334 25.651H4336.06c-14.541 0-26.334-11.469-26.334-25.651v-142.2c0-14.165 11.776-25.65 26.334-25.65m421.956-795h149.077c8.977 0 17.289 4.437 22.136 11.776l278.767 422.11c10.36 15.701 33.928 15.701 44.288 0l278.75-422.11a26.453 26.453 0 0 1 22.135-11.776h149.163c14.54 0 26.317 11.503 26.317 25.651v937.199c0 14.165-11.776 25.668-26.317 25.668h-125.61c-14.559 0-26.335-11.486-26.335-25.668V369.135c0-25.344-33.74-35.328-48.213-14.268l-253.099 364.408c-10.428 15.07-33.177 15.052-43.605 0L4955.238 357.87c-14.455-21.094-48.23-11.128-48.23 14.25V967.92c0 14.165-11.776 25.668-26.334 25.668H4758c-14.54 0-26.317-11.486-26.317-25.668V30.72c0-14.165 11.776-25.651 26.317-25.651M2936.798 838.246h-577.485c-14.558 0-26.334-11.503-26.334-25.65V598.408c0-14.166 11.776-25.652 26.334-25.652h472.73c17.851 0 30.549-16.964 25.054-33.536L2822.69 435.2a26.249 26.249 0 0 0-25.054-17.8h-438.34c-14.558 0-26.334-11.486-26.334-25.652v-205.67c0-14.165 11.776-25.651 26.334-25.651h554.581c10.48 0 19.951-6.076 24.133-15.412l61.713-138.018V5.07h-818.654c-14.541 0-26.317 11.503-26.317 25.651v937.199c0 14.165 11.776 25.668 26.317 25.668h825.856v-1.263l-45.056-136.294a26.283 26.283 0 0 0-25.071-17.784m3808.427 7.749H6167.74c-14.541 0-26.317-11.486-26.317-25.652V606.157c0-14.166 11.776-25.651 26.317-25.651h472.746c17.835 0 30.533-16.965 25.054-33.52l-34.406-104.02a26.249 26.249 0 0 0-25.071-17.801H6167.74c-14.541 0-26.317-11.503-26.317-25.651V193.826c0-14.165 11.776-25.651 26.317-25.651h554.581c10.479 0 19.968-6.042 24.132-15.394l61.696-138.035v-1.912h-818.636c-14.558 0-26.334 11.486-26.334 25.651v937.2c0 14.165 11.776 25.668 26.334 25.668h825.856v-1.263l-45.074-136.295a26.283 26.283 0 0 0-25.07-17.8m-5395.627-48.367L1902.83 144.98c5.734-6.758 7.51-15.889 4.762-24.234l-32.359-97.895a26.283 26.283 0 0 0-25.07-17.783h-708.66c-18.961 0-31.71 18.96-24.132 35.908l45.892 102.639c4.181 9.37 13.653 15.411 24.132 15.411h437.3c22.271 0 34.474 25.259 20.309 42.001l-562.876 664.013v1.365l49.971 111.77c4.182 9.353 13.654 15.394 24.133 15.394h756.224v-5.256l-43.282-130.902a26.283 26.283 0 0 0-25.07-17.783H1369.89c-22.272 0-34.475-25.276-20.31-42.001M712.84 55.535c-10.888 3.413-18.26 13.312-18.26 24.422v494.166c0 182.255-97.11 275.387-255.045 275.387-159.403 0-256.46-98.764-256.46-282.385V98.714c0-10.206-6.213-19.44-15.805-23.518L41.643 21.862C24.235 14.507 4.779 26.897 4.779 45.397v528.726c0 286.77 168.158 434.978 431.855 434.978 265.216 0 436.172-148.207 436.172-443.392V40.55c0-17.408-17.408-29.764-34.406-24.405L712.84 55.57z" fill="#fff"/></svg>