<svg class="icon" viewBox="0 0 1024 1024" xmlns="http://www.w3.org/2000/svg" width="30" height="30"><defs><style/></defs><path d="M139.716 335.179c-37.51 0-64.79 27.28-64.79 61.38v265.98c0 34.1 27.28 61.38 61.38 61.38h3.41c34.1 0 61.38-27.28 61.38-61.38V396.56c0-34.1-27.28-61.38-61.38-61.38zm88.661 429.66c0 30.69 23.87 54.56 54.56 54.56h61.38v143.22c0 34.101 27.28 61.381 61.38 61.381h3.41c34.1 0 61.38-27.28 61.38-61.38V819.4h85.25v143.22c0 34.1 27.28 61.38 61.38 61.38h3.41c34.1 0 61.38-27.28 61.38-61.38V819.4h61.38c30.69 0 54.56-23.87 54.56-54.56V345.408h-569.47v419.43zm422.84-675.18l47.74-75.02c3.41-3.41 0-10.23-3.41-13.64-3.41 0-10.23 0-13.64 3.41l-47.74 75.02c-37.51-13.64-78.43-23.87-122.76-23.87s-85.25 6.82-122.76 23.87l-47.74-75.02C337.497 1 330.677 1 327.267 1c-6.82 3.41-6.82 10.23-3.41 17.05l47.74 75.02c-85.25 37.51-143.22 119.35-143.22 208.01v17.05h566.06v-17.05c0-88.66-57.97-170.5-143.22-211.42zm-272.8 132.99c-13.64 0-27.28-13.64-27.28-27.28s13.64-27.28 27.28-27.28 27.28 13.64 27.28 27.28-10.23 27.28-27.28 27.28zm265.98 0c-13.64 0-27.28-13.64-27.28-27.28s13.64-27.28 27.28-27.28 27.28 13.64 27.28 27.28-13.64 27.28-27.28 27.28zm242.11 112.53c-37.51 0-64.79 27.28-64.79 61.38v265.98c0 34.1 27.28 61.38 61.38 61.38h3.41c34.1 0 61.38-27.28 61.38-61.38V396.56c0-34.1-27.28-61.38-61.38-61.38z" fill="#fff"/></svg>