<svg class="icon" viewBox="0 0 1157 1024" xmlns="http://www.w3.org/2000/svg" width="33.896" height="30"><defs><style/></defs><path d="M954.778 746.53c-24.2 52.907-35.806 76.527-66.97 123.29-43.486 65.33-104.79 146.602-180.77 147.32-67.516.614-84.821-43.35-176.47-42.804-91.58.478-110.728 43.554-178.244 42.94-75.946-.683-134.075-74.07-177.561-139.367C53.11 695.296 40.413 481.007 115.439 367.104c53.282-80.964 137.387-128.341 216.474-128.341 80.554 0 131.174 43.52 197.734 43.52 64.58 0 103.902-43.589 197.018-43.589 70.348 0 144.896 37.786 198.041 103.083-174.08 94.072-145.783 339.183 30.072 404.753zM656.043 165.751c-36.216 45.842-98.646 81.374-158.96 79.531-10.99-59.153 17.306-119.979 51.542-161.007C586.342 39.083 650.923 4.437 706.22.683c9.318 61.815-16.384 122.265-50.176 165.103z" fill="#fff"/></svg>