<svg width="172" height="30" viewBox="0 0 172 30" xmlns="http://www.w3.org/2000/svg"><title>Page 1 Copy 4</title><g id="Page-1" fill="none" fill-rule="evenodd"><g id="Artboard-Copy-11" transform="translate(-80 -17)"><g id="head-nav"><g id="logo" transform="translate(80 17)"><g id="Group-Copy-4"><g id="Page-1-Copy-4"><path d="M10.708 22.352c1.972 0 3.57 1.676 3.57 3.743 0 2.068-1.598 3.744-3.57 3.744-1.971 0-3.57-1.676-3.57-3.744 0-2.067-1.597-3.743-3.568-3.743-1.972 0-3.57-1.676-3.57-3.744v-7.487c0-2.067 1.598-3.743 3.57-3.743 1.971 0 3.569 1.676 3.569 3.743v7.487c0 2.068 1.598 3.744 3.57 3.744zM39.191 7.529c-1.972 0-3.57-1.676-3.57-3.744 0-2.068 1.598-3.743 3.57-3.743 1.971 0 3.57 1.675 3.57 3.743 0 2.068 1.597 3.744 3.568 3.744 1.972 0 3.57 1.675 3.57 3.743v7.487c0 2.068-1.598 3.744-3.57 3.744-1.971 0-3.569-1.676-3.569-3.744v-7.487c0-2.068-1.598-3.743-3.57-3.743zm-14.205-.014c-1.972 0-3.57-1.66-3.57-3.709 0-2.049 1.598-3.71 3.57-3.71 1.972 0 3.57 1.661 3.57 3.71s1.597 3.71 3.569 3.71c1.971 0 3.57 1.66 3.57 3.709v7.418c0 2.05-1.599 3.71-3.57 3.71-1.972 0-3.57-1.66-3.57-3.71v-7.418c0-2.05-1.597-3.71-3.569-3.71zm92.17-.032c0-.223.182-.403.408-.403h6.613c1.982 0 3.534.577 4.548 1.554.832.845 1.304 1.998 1.304 3.352v.045c0 2.348-1.314 3.833-3.243 4.539a.4.4 0 0 0-.194.611l3.472 4.801a.403.403 0 0 1-.333.638h-2.258a.41.41 0 0 1-.334-.171l-1.989-2.782a5.92 5.92 0 0 0-4.817-2.465c-.226 0-.41.181-.41.404v4.61a.406.406 0 0 1-.408.404h-1.95a.406.406 0 0 1-.41-.403V7.483zm6.819 7.3c1.981 0 3.24-1.02 3.24-2.597v-.045c0-1.665-1.214-2.574-3.263-2.574h-3.62c-.225 0-.409.18-.409.403v4.41c0 .223.184.404.41.404h3.642zm9.376 4.795h2.175c.226 0 .41.18.41.403v2.236a.406.406 0 0 1-.41.403h-2.175a.406.406 0 0 1-.41-.403V19.98c0-.223.184-.403.41-.403zm6.553-12.498h2.316c.14 0 .269.07.344.185l4.33 6.636a.412.412 0 0 0 .688 0l4.33-6.636a.41.41 0 0 1 .343-.185h2.317c.226 0 .41.18.41.403v14.733a.406.406 0 0 1-.41.404h-1.95a.406.406 0 0 1-.41-.404v-9.413c0-.398-.524-.555-.749-.224l-3.93 5.729a.412.412 0 0 1-.678 0l-3.887-5.682c-.224-.332-.749-.175-.749.224v9.366a.406.406 0 0 1-.41.404h-1.905a.406.406 0 0 1-.408-.404V7.483c0-.223.183-.403.408-.403zm-28.288 13.098c.178 0 .335.113.39.28l.7 2.142v.02H99.878a.406.406 0 0 1-.409-.404V7.483c0-.223.183-.403.409-.403h12.716v.03l-.959 2.17a.41.41 0 0 1-.375.242h-8.614a.406.406 0 0 0-.409.403v3.234c0 .222.183.403.41.403h6.808c.177 0 .335.113.389.28l.534 1.635a.404.404 0 0 1-.389.527h-7.343a.406.406 0 0 0-.409.403v3.367c0 .223.183.404.41.404h8.97zm59.155.122c.178 0 .335.113.39.28l.7 2.142v.02h-12.828a.406.406 0 0 1-.409-.404V7.605c0-.223.183-.403.409-.403h12.716v.03l-.959 2.17a.409.409 0 0 1-.374.242H161.8a.406.406 0 0 0-.408.403v3.234c0 .222.183.403.408.403h6.809c.178 0 .335.113.39.28l.533 1.635a.404.404 0 0 1-.389.527h-7.343a.406.406 0 0 0-.408.403v3.367c0 .223.183.404.408.404h8.97zm-83.808-.76c-.22.262-.03.66.315.66h7.366c.177 0 .335.112.39.28l.672 2.057v.083H83.959a.409.409 0 0 1-.374-.242l-.777-1.757v-.022l8.743-10.439a.403.403 0 0 0-.315-.66h-6.793a.409.409 0 0 1-.375-.242l-.712-1.614a.404.404 0 0 1 .375-.564h11.007c.178 0 .335.113.39.28l.502 1.538a.4.4 0 0 1-.074.381l-8.593 10.26zm-9.89-11.667l1.95-.62a.408.408 0 0 1 .534.384v8.257c0 4.64-2.656 6.97-6.775 6.97-4.096 0-6.708-2.33-6.708-6.838V7.714c0-.291.303-.486.573-.37l1.951.838c.15.064.246.21.246.37v7.364c0 2.886 1.507 4.439 3.983 4.439 2.453 0 3.962-1.464 3.962-4.33V8.258c0-.175.114-.33.283-.384z" id="Combined-Shape" fill="#FFF"/><path d="M17.847 7.377c-1.971 0-3.57 1.676-3.57 3.744v7.487c0 2.068 1.599 3.743 3.57 3.743 1.972 0 3.57-1.675 3.57-3.743v-7.487c0-2.068-1.598-3.744-3.57-3.744" id="Fill-9" fill="#479CFF"/></g></g></g></g></g></g></svg>