<svg width="51" height="60" viewBox="0 0 51 60" xmlns="http://www.w3.org/2000/svg"><title>2016QQ彩色-2</title><g id="Page-1" fill="none" fill-rule="evenodd"><g id="Artboard-Copy-3" transform="translate(-1226 -3283)" fill="#9B9B9B"><g id="2016QQ彩色-2" transform="translate(1226 3283)"><path d="M25.51 59.24c-5.28 0-10.128-1.746-13.249-4.353-1.584.467-3.612 1.22-4.891 2.153-1.095.798-.958 1.612-.76 1.94.865 1.444 14.86.922 18.9.473v-.214zM3.805 31.916c-.747 1.924-1.485 3.927-2.025 5.645C-.798 45.755.037 49.145.673 49.221c1.365.163 5.311-6.167 5.311-6.167 0 6.432 5.88 16.308 19.346 16.4l.18-.001c4.04.45 18.034.971 18.9-.472.198-.329.334-1.143-.76-1.941-1.218-.888-3.114-1.613-4.66-2.084 4.133-3.454 6.042-8.237 6.042-11.902 0 0 3.947 6.33 5.312 6.167.635-.076 1.47-3.466-1.107-11.659-.54-1.718-1.279-3.721-2.026-5.645l-2.727-6.724c.002-.078.036-1.402.036-2.084C44.52 11.61 39.024.058 25.508.057 11.993.057 6.497 11.611 6.497 23.109a109.398 109.398 0 0 0 .036 2.084l-2.728 6.724z" id="Combined-Shape"/></g></g></g></svg>