<svg width="1366" height="472" viewBox="0 0 1366 472" xmlns="http://www.w3.org/2000/svg"><title>Group 5</title><defs><linearGradient x1="100%" y1="63.845%" x2=".87%" y2="64.161%" id="linearGradient-1"><stop stop-color="#00509E" offset="0%"/><stop stop-color="#0082FF" offset="50.837%"/><stop stop-color="#00CBFF" offset="100%"/></linearGradient><linearGradient x1="0%" y1="50%" x2="63.625%" y2="50%" id="linearGradient-2"><stop stop-color="#FFF" offset="0%"/><stop stop-color="#FFF" stop-opacity="0" offset="8.181%"/><stop stop-color="#FFF" offset="22.276%"/><stop stop-color="#97E3E5" stop-opacity="0" offset="68.495%"/><stop stop-color="#FFF" stop-opacity=".481" offset="87.843%"/><stop stop-color="#005AFF" stop-opacity="0" offset="100%"/></linearGradient></defs><g id="Page-1" fill="none" fill-rule="evenodd"><g id="Artboard-Copy-11" transform="translate(0 -1496)"><g id="Group-5" transform="translate(-1 1496)"><path d="M0 .475L1366 0v469.525L0 470z" id="Rectangle-34" transform="translate(1 2)" fill="url(#linearGradient-1)"/><g id="line" transform="matrix(-1 0 0 1 1368 0)" fill-rule="nonzero" fill="url(#linearGradient-2)"><path d="M106.537 3.081a523.276 523.276 0 0 0-12.488 11.815C81.132 27.508 68.215 41.251 56.158 55.663c-19.38 23.164-34.634 45.794-44.2 67.054-15.507 34.463-15.176 63.323 4.524 84.668 23.198 25.134 72.561 38.958 151.534 39.662 98.778.881 189.402-9.504 277.247-30 70.319-16.406 134.225-37.723 214.072-69.39 11.688-4.635 23.55-9.415 38.586-15.531 3.366-1.37 29.695-12.105 37.295-15.19 29.943-12.15 51.022-20.425 71.656-27.987 117.443-43.036 276.455-67.445 353.24-56.121 38.876 5.733 51.128 19.971 32.3 41.862-21.516 25.016-82.136 58.841-183.206 100.447-97.131 39.985-160.162 72.867-192.237 99.517-29.562 24.561-32.912 43.946-12.42 58.79 17.964 13.015 53.97 22.44 107.57 29.367 42.811 5.532 92.642 9.183 167.259 12.959 8.162.413 16.678.832 26.913 1.327 5.977.289 26.813 1.288 26.702 1.283 57.937 2.786 88.28 4.493 118.272 6.909 38.346 3.088 66.338 6.82 85.452 11.72 43.921 11.258 40.22 28.649-19.631 56.403 60.985-27.26 64.919-45.74 19.902-57.28-19.188-4.918-47.231-8.657-85.634-11.75-30.009-2.417-60.36-4.124-118.309-6.911.111.005-20.724-.994-26.7-1.283-10.235-.495-18.75-.914-26.912-1.327-74.59-3.775-124.398-7.424-167.173-12.951-53.43-6.904-89.308-16.297-107.088-29.177-19.928-14.437-16.689-33.18 12.47-57.407 31.979-26.57 94.934-59.412 191.976-99.36 101.214-41.665 161.933-75.546 183.581-100.715 19.42-22.578 6.583-37.494-32.927-43.321-76.987-11.355-236.175 13.082-353.773 56.175-20.648 7.567-41.737 15.846-71.69 28-7.6 3.085-33.93 13.82-37.296 15.19-15.034 6.115-26.893 10.894-38.577 15.528-79.803 31.649-143.662 52.95-213.922 69.343-87.762 20.477-178.299 30.851-276.989 29.971-78.709-.701-127.81-14.452-150.778-39.338-19.418-21.038-19.744-49.555-4.363-83.737 9.528-21.177 24.739-43.742 44.07-66.848 12.035-14.386 24.93-28.106 37.826-40.697a522.325 522.325 0 0 1 12.465-11.794 343.362 343.362 0 0 1 3.49-3.15c-1.708.247-2.88 1.303-4.198 2.508z" id="Stroke-1"/><path d="M103.616 8.3a507.98 507.98 0 0 0-12.03 11.554C79.14 32.186 66.695 45.623 55.08 59.711c-18.625 22.59-33.296 44.657-42.517 65.389-15.157 34.079-14.71 62.54 4.857 83.449 23.07 24.652 72.016 37.921 150.262 37.978 95.734-.052 184.257-10.733 270.587-30.991 69.293-16.26 132.831-37.239 211.52-67.974 12.264-4.79 24.698-9.729 40.453-16.05 3.446-1.382 31.048-12.483 39.006-15.667 31.25-12.504 53.202-20.982 74.635-28.67 117.786-42 275.43-65.226 351.617-53.548 38.672 5.927 51.066 20.169 32.806 41.878-20.843 24.782-80.204 58.155-179.439 99.112-182.237 75.494-241.036 125.39-198.553 156.615 17.831 13.106 53.33 22.746 106.047 29.995 42.155 5.797 91.292 9.76 164.43 13.964 8.465.486 17.281.98 28.002 1.57l27.757 1.518c55.665 3.053 85.702 4.956 114.915 7.528 37.184 3.274 64.373 7.119 82.976 12.049 42.69 11.312 39.483 28.3-17.695 55.036 58.317-26.245 61.728-44.315 17.975-55.91-18.678-4.95-45.918-8.801-83.16-12.08-29.228-2.574-59.274-4.478-114.951-7.531-2.413-.132-21.97-1.2-27.756-1.52-10.72-.589-19.536-1.082-28-1.569-73.11-4.201-122.225-8.163-164.344-13.954-52.548-7.226-87.919-16.832-105.568-29.804-41.43-30.451 16.82-79.882 198.339-155.079 99.38-41.017 158.844-74.447 179.82-99.387 18.838-22.398 5.865-37.305-33.434-43.328-76.39-11.709-234.208 11.542-352.15 53.598-21.449 7.693-43.41 16.176-74.671 28.684-7.96 3.185-35.562 14.286-39.008 15.668-15.752 6.32-28.183 11.258-40.443 16.046-78.646 30.718-142.14 51.682-211.376 67.928-86.25 20.24-174.69 30.911-270.337 30.963-77.981-.057-126.663-13.254-149.5-37.658-19.282-20.605-19.724-48.72-4.692-82.518 9.184-20.649 23.813-42.652 42.39-65.183C67.474 46.195 79.898 32.78 92.322 20.47A507.033 507.033 0 0 1 104.33 8.938a332.986 332.986 0 0 1 3.363-3.08c-1.677.232-2.806 1.264-4.077 2.443z" id="Stroke-3"/><path d="M100.695 13.527A493.7 493.7 0 0 0 89.12 24.836c-11.973 12.07-23.947 25.218-35.123 39.001-17.837 21.998-31.907 43.484-40.787 63.673-14.85 33.757-14.318 61.858 5.099 82.34 22.925 24.182 71.468 36.853 149.04 36.156 92.44-.832 178.59-11.712 263.151-31.677 68.019-16.059 130.901-36.638 208.379-66.469 12.908-4.97 25.938-10.076 42.688-16.707 1.05-.416 32.227-12.785 41.066-16.27 32.655-12.877 55.797-21.647 78.263-29.483 117.853-41.107 274.132-63.201 349.852-51.112 38.494 6.145 51.064 20.426 33.4 41.981-20.142 24.581-78.23 57.524-175.62 97.827-177.647 74.083-234.6 123.492-192.445 154.928 17.698 13.199 52.69 23.054 104.526 30.627 41.499 6.063 89.94 10.341 161.605 14.97 8.786.567 17.919 1.141 29.172 1.838 5.426.336 24.862 1.532 28.886 1.781 53.385 3.301 83.078 5.402 111.497 8.127 35.999 3.453 62.369 7.404 80.447 12.36 41.422 11.354 38.694 27.933-15.81 53.645 55.649-25.227 58.554-42.879 16.098-54.517-18.152-4.976-44.574-8.935-80.63-12.393-28.435-2.727-58.138-4.828-111.535-8.13-4.024-.249-23.46-1.445-28.885-1.78-11.253-.697-20.385-1.272-29.17-1.84-71.636-4.625-120.054-8.902-161.517-14.96-51.668-7.548-86.532-17.367-104.05-30.431-41.128-30.67 15.28-79.607 192.227-153.397 97.537-40.364 155.73-73.367 176.006-98.111 18.228-22.244 5.084-37.177-34.03-43.422-75.921-12.12-232.374 9.999-350.382 51.16-22.482 7.841-45.635 16.616-78.303 29.497-8.84 3.486-40.018 15.855-41.066 16.27-16.748 6.63-29.775 11.735-42.68 16.704-77.436 29.815-140.276 50.38-208.24 66.427-84.483 19.946-170.554 30.816-262.91 31.647-77.307.695-125.583-11.907-148.273-35.841-19.128-20.177-19.653-47.932-4.928-81.407 8.845-20.107 22.873-41.53 40.664-63.47C65.956 50.62 77.909 37.493 89.86 25.445a492.753 492.753 0 0 1 11.554-11.287c1.22-1.15 2.302-2.158 3.235-3.014-1.646.218-2.732 1.228-3.955 2.382z" id="Stroke-5"/><path d="M97.774 18.75a478.905 478.905 0 0 0-11.122 11.052C75.148 41.598 63.644 54.446 52.906 67.914c-17.089 21.433-30.58 42.365-39.117 62.035-14.496 33.4-13.846 61.117 5.44 81.162 22.8 23.7 70.93 35.785 147.786 34.374 89.32-1.64 173.211-12.75 256.063-32.456 66.801-15.888 129.056-36.097 205.342-65.066 13.532-5.139 27.14-10.403 44.821-17.313-1.652.646 33.487-13.114 43.019-16.82 34.023-13.23 58.244-22.249 81.646-30.204 118.152-40.166 272.84-61.228 347.862-48.856 38.247 6.308 50.955 20.594 33.908 42.011-19.416 24.393-76.124 56.985-171.489 96.795-173.45 72.407-228.724 121.18-186.896 152.79 17.565 13.273 52.076 23.346 103.092 31.266 40.871 6.345 88.604 10.966 158.971 16.079 9.058.658 18.443 1.323 30.213 2.145 4.589.32 24.59 1.711 29.885 2.081 51.192 3.578 80.584 5.908 108.271 8.813 34.888 3.66 60.504 7.745 78.111 12.748 40.288 11.45 38.09 27.655-13.77 52.354 53.014-24.221 55.356-41.489 14.068-53.222-17.681-5.025-43.35-9.118-78.294-12.784-27.704-2.906-57.105-5.237-108.31-8.816-5.295-.37-25.296-1.76-29.885-2.08-11.769-.823-21.153-1.488-30.21-2.146-70.339-5.111-118.048-9.73-158.882-16.069-50.85-7.894-85.233-17.93-102.62-31.07-40.822-30.847 13.908-79.14 186.673-151.262 95.517-39.874 152.332-72.526 171.882-97.088 17.596-22.107 4.32-37.032-34.54-43.44-75.223-12.406-230.083 8.68-348.39 48.898-23.42 7.962-47.653 16.984-81.69 30.22a35521.093 35521.093 0 0 0-43.02 16.821c-17.677 6.909-31.283 12.172-44.81 17.309-76.248 28.955-138.461 49.15-205.21 65.026-82.779 19.688-166.591 30.787-255.831 32.426-76.59 1.406-124.452-10.612-147.015-34.063C.988 190.77.346 163.4 14.72 130.283c8.501-19.589 21.952-40.459 38.996-61.835 10.717-13.441 22.2-26.267 33.684-38.042 4.019-4.12 7.75-7.816 11.1-11.03a313.2 313.2 0 0 1 3.107-2.946c-1.615.205-2.659 1.192-3.833 2.32z" id="Stroke-7"/><path d="M94.851 23.971a464.108 464.108 0 0 0-10.669 10.795C73.146 46.286 62.111 58.832 51.81 71.982c-16.357 20.88-29.278 41.272-37.471 60.434-14.127 33.04-13.346 60.37 5.814 79.976 22.685 23.211 70.402 34.704 146.528 32.571 86.24-2.416 167.854-13.741 248.955-33.193 65.54-15.719 127.09-35.557 202.175-63.7 14.16-5.308 28.337-10.724 47.005-17.931 3.393-1.31 6.843-2.643 11.431-4.418l11.31-4.375a8835.507 8835.507 0 0 1 22.276-8.586c35.401-13.581 60.733-22.847 85.084-30.91 118.394-39.197 271.625-59.155 346.071-46.436 38.035 6.498 50.894 20.8 34.44 42.06-18.72 24.187-74.124 56.368-167.58 95.58-168.997 70.909-222.48 119.15-180.976 150.96 17.434 13.363 51.448 23.655 101.606 31.908 40.227 6.62 87.261 11.57 156.217 17.124 9.405.758 19.11 1.52 31.516 2.482 3.219.25 24.88 1.922 31.133 2.408 48.926 3.804 77.904 6.343 104.786 9.402 33.678 3.833 58.46 8.021 75.53 13.049 38.992 11.483 37.255 27.275-11.936 50.944 50.35-23.198 52.203-40.042 12.245-51.81-17.144-5.05-41.979-9.247-75.715-13.086-26.9-3.061-55.887-5.6-104.825-9.405-6.253-.487-27.915-2.159-31.133-2.408-12.405-.962-22.109-1.725-31.513-2.482-68.928-5.553-115.937-10.5-156.128-17.113-49.993-8.226-83.88-18.48-101.138-31.708-40.52-31.058 12.422-78.81 180.75-149.438 93.61-39.278 149.124-71.522 167.978-95.883 16.988-21.95 3.567-36.877-35.072-43.478-74.647-12.753-228.05 7.226-346.598 46.476-24.37 8.068-49.715 17.339-85.13 30.925a8836.386 8836.386 0 0 0-22.278 8.588l-11.311 4.375c-4.588 1.774-8.037 3.107-11.43 4.417-18.665 7.206-32.84 12.621-46.996 17.927-75.047 28.13-136.559 47.955-202.05 63.662-81.028 19.435-162.568 30.75-248.73 33.164-75.86 2.125-123.307-9.303-145.75-32.267-18.863-19.302-19.635-46.285-5.63-79.041 8.16-19.082 21.042-39.412 37.354-60.236 10.28-13.123 21.296-25.648 32.312-37.146A463.166 463.166 0 0 1 95.583 24.59a303.14 303.14 0 0 1 2.982-2.877c-1.586.191-2.587 1.156-3.714 2.257z" id="Stroke-9"/><path d="M91.928 29.192c-3.083 3.071-6.518 6.6-10.218 10.535C71.14 50.968 60.572 63.21 50.706 76.04c-15.64 20.34-28 40.205-35.85 58.871-13.74 32.679-12.815 59.619 6.227 78.78 22.577 22.72 69.88 33.613 145.265 30.75 83.194-3.16 162.518-14.688 241.824-33.887 64.234-15.55 125.007-35.02 198.873-62.368 14.793-5.478 29.523-11.039 49.243-18.564 5.284-2.016 23.29-8.898 23.789-9.09 9.368-3.578 16.439-6.27 23.274-8.858 36.792-13.93 63.265-23.443 88.577-31.599 118.638-38.225 270.406-57.082 344.281-44.02 37.821 6.688 50.83 21.007 34.968 42.11-18.024 23.98-72.125 55.752-163.67 94.368-164.544 69.41-216.236 117.119-175.053 149.136 17.303 13.452 50.823 23.965 100.122 32.552 39.587 6.895 85.921 12.177 153.47 18.172a9900.97 9900.97 0 0 0 32.946 2.859c.43.037 25.406 2.165 32.494 2.774 46.65 4.008 75.153 6.754 101.206 9.962 32.436 3.994 56.358 8.279 72.87 13.323 37.64 11.498 36.34 26.866-10.18 49.5 47.686-22.17 49.076-38.579 10.498-50.363-16.586-5.066-40.56-9.36-73.054-13.362-26.07-3.21-54.583-5.957-101.246-9.966-7.088-.61-32.066-2.737-32.494-2.774a9899.672 9899.672 0 0 1-32.943-2.86c-67.52-5.991-113.83-11.27-153.379-18.159-49.138-8.559-82.53-19.031-99.66-32.35-40.222-31.27 10.933-78.484 174.824-147.618 91.703-38.683 145.916-70.52 164.074-94.68 16.38-21.793 2.816-36.724-35.602-43.517-74.075-13.098-226.014 5.78-344.806 44.056-25.332 8.162-51.82 17.68-88.627 31.616a8226.242 8226.242 0 0 0-23.277 8.86c-.5.19-18.505 7.073-23.788 9.089-19.718 7.524-34.444 13.084-49.234 18.56-73.83 27.335-134.566 46.792-198.753 62.332-79.238 19.183-158.49 30.7-241.609 33.857-75.117 2.853-122.15-7.98-144.481-30.45-18.741-18.86-19.655-45.454-6.034-77.846 7.816-18.588 20.138-38.39 35.735-58.674C61.37 63.759 71.92 51.539 82.47 40.318a448.37 448.37 0 0 1 10.196-10.512 293.08 293.08 0 0 1 2.856-2.808c-1.556.178-2.514 1.12-3.594 2.194z" id="Stroke-11"/><path d="M89.004 34.412a434.512 434.512 0 0 0-9.768 10.272c-10.105 10.961-20.21 22.898-29.64 35.407-14.94 19.814-26.75 39.163-34.255 57.346-13.338 32.314-12.254 58.861 6.677 77.576 22.478 22.22 69.366 32.509 143.998 28.908 80.184-3.87 157.204-15.586 234.673-34.536 62.884-15.381 122.806-34.482 195.429-61.066 23.85-8.731 104.304-39.094 100.692-37.744 38.198-14.277 65.842-24.038 92.128-32.274 118.884-37.246 269.183-55.01 342.493-41.604 37.605 6.876 50.762 21.211 35.493 42.16-17.33 23.773-70.127 55.137-159.755 93.157-160.097 67.911-209.996 115.092-169.133 147.318 17.174 13.543 50.2 24.278 98.644 33.2 38.946 7.174 84.583 12.79 150.726 19.223 10.194.991 20.576 1.977 34.525 3.284l8.569.801 4.268.399 4.258.398c6.859.641 11.94 1.118 16.893 1.586 93.37 8.818 138.513 14.821 167.628 24.056 36.23 11.492 35.337 26.423-8.504 48.012 45.016-21.133 45.97-37.092 8.833-48.871-29.221-9.268-74.388-15.275-167.854-24.102a17903.153 17903.153 0 0 0-21.151-1.984l-4.27-.4-8.567-.8a9576.233 9576.233 0 0 1-34.521-3.284c-66.115-6.43-111.726-12.043-150.634-19.21-48.285-8.893-81.183-19.586-98.188-32.996-39.926-31.487 9.442-78.165 168.9-145.805 89.791-38.09 142.701-69.52 160.166-93.48 15.771-21.636 2.065-36.57-36.13-43.554-73.508-13.443-223.976 4.341-343.014 41.636-26.309 8.243-53.969 18.009-92.183 32.293 3.607-1.349-76.84 29.012-100.685 37.74-72.59 26.572-132.476 45.662-195.315 61.033-77.404 18.933-154.355 30.64-234.467 34.505-74.364 3.588-120.98-6.64-143.209-28.615-18.627-18.414-19.696-44.614-6.477-76.64 7.473-18.105 19.246-37.393 34.143-57.151 9.412-12.483 19.497-24.397 29.582-35.337a433.575 433.575 0 0 1 9.747-10.25 283.02 283.02 0 0 1 2.73-2.737c-1.526.164-2.443 1.082-3.475 2.13z" id="Stroke-13"/><path d="M86.08 39.632a419.72 419.72 0 0 0-9.322 10.006C67.117 60.316 57.475 71.945 48.476 84.13c-14.254 19.301-25.523 38.15-32.684 55.861-12.917 31.946-11.662 58.098 7.167 76.363 22.387 21.717 68.858 31.393 142.723 27.046 77.213-4.545 151.917-16.435 227.508-35.136 61.49-15.213 120.488-33.947 191.842-59.794 24.417-8.845 104.135-38.621 105.177-39.006 39.622-14.628 68.467-24.635 95.74-32.937 119.131-36.262 267.954-52.939 340.704-39.192 37.388 7.066 50.692 21.417 36.015 42.21-16.637 23.567-68.13 54.524-155.839 91.948C851.179 237.908 803.072 284.562 843.618 317c17.046 13.637 49.58 24.595 97.17 33.854 38.309 7.453 83.247 13.408 147.99 20.276 16.448 1.745 74.711 7.7 71.908 7.41 88.793 9.18 132.879 15.5 160.942 24.756 34.75 11.46 34.234 25.939-6.927 46.476 42.342-20.089 42.895-35.583 7.268-47.332-28.17-9.29-72.282-15.615-161.17-24.803 2.801.29-55.46-5.666-71.906-7.41-64.713-6.865-109.626-12.817-147.896-20.263-47.432-9.229-79.84-20.144-96.719-33.648-39.632-31.706 7.948-77.85 162.976-143.999 87.874-37.495 139.483-68.522 156.255-92.28 15.163-21.48 1.316-36.418-36.653-43.593-72.948-13.784-221.94 2.911-341.224 39.22-27.296 8.309-56.16 18.322-95.799 32.956-1.046.387-80.76 30.162-105.17 39.004-71.323 25.836-130.287 44.56-191.736 59.762-75.528 18.685-150.167 30.565-227.31 35.106-73.595 4.331-119.793-5.288-141.93-26.76-18.518-17.965-19.757-43.77-6.957-75.426 7.13-17.636 18.363-36.423 32.576-55.668 8.98-12.16 18.603-23.766 28.225-34.422a418.787 418.787 0 0 1 9.3-9.984 272.965 272.965 0 0 1 2.605-2.667c-1.497.152-2.371 1.046-3.356 2.067z" id="Stroke-15"/><path d="M83.154 44.85a404.944 404.944 0 0 0-8.876 9.738c-9.181 10.392-18.362 21.71-26.931 33.57-13.585 18.802-24.322 37.163-31.14 54.417-12.478 31.575-11.038 57.329 7.696 75.14 22.307 21.208 68.361 30.266 141.446 25.164 74.277-5.186 146.654-17.234 220.325-35.687 60.053-15.042 118.055-33.41 188.108-58.547 24.86-8.92 104.582-38.414 109.764-40.305 41.065-14.982 71.142-25.235 99.414-33.588 119.379-35.27 266.72-50.867 338.915-36.78 37.169 7.253 50.62 21.62 36.534 42.258-15.945 23.362-66.134 53.912-151.92 90.743-151.208 64.918-197.52 111.049-157.288 143.702 16.919 13.732 48.964 24.916 95.701 34.513 37.673 7.736 81.915 14.033 145.258 21.334 16.751 1.931 73.42 8.225 75.687 8.48 84.098 9.481 127.023 16.111 153.975 25.368 33.19 11.4 33.011 25.409-5.462 44.882 39.662-19.033 39.852-34.043 5.815-45.733-27.058-9.294-70.013-15.928-154.205-25.42-2.269-.255-58.936-6.549-75.684-8.48-63.313-7.297-107.53-13.59-145.164-21.319-46.582-9.565-78.5-20.704-95.255-34.304-39.342-31.93 6.45-77.544 157.049-142.2 85.955-36.903 136.262-67.526 152.342-91.086 14.554-21.323.568-36.263-37.174-43.628-72.392-14.126-219.901 1.488-339.433 36.804-28.297 8.361-58.393 18.62-99.477 33.61-5.187 1.892-84.904 31.384-109.758 40.303-70.024 25.126-127.994 43.484-188.007 58.516-73.612 18.437-145.927 30.475-220.136 35.656-72.816 5.084-118.596-3.92-140.648-24.886-18.42-17.512-19.84-42.917-7.477-74.202 6.788-17.178 17.49-35.479 31.034-54.225 8.55-11.834 17.713-23.129 26.875-33.5a404.013 404.013 0 0 1 8.856-9.715c.935-.99 1.764-1.858 2.48-2.595-1.468.138-2.301 1.008-3.239 2.002z" id="Stroke-17"/><path d="M80.228 50.068a390.18 390.18 0 0 0-8.433 9.467C63.072 69.638 54.349 80.64 46.208 92.174c-12.932 18.316-23.147 36.205-29.622 53.015-12.02 31.2-10.38 56.553 8.266 73.906 22.237 20.695 67.873 29.128 140.165 23.262 71.376-5.791 141.415-17.98 213.127-36.184 58.572-14.868 115.506-32.87 184.223-57.321 25.142-8.946 105.527-38.426 114.45-41.645 42.533-15.342 73.871-25.84 103.154-34.23 119.626-34.273 265.48-48.796 337.126-34.37 36.948 7.439 50.544 21.824 37.05 42.307-15.255 23.156-64.139 53.301-147.998 89.538C859.38 233.874 814.864 279.486 854.784 312.36c16.794 13.829 48.35 25.24 94.238 35.177 37.04 8.02 80.587 14.664 142.534 22.396 16.986 2.12 73.748 8.946 79.912 9.701 79.273 9.719 120.906 16.642 146.676 25.88 31.536 11.303 31.655 24.823-4.126 43.22 36.975-17.966 36.847-32.47 4.493-44.067-25.878-9.276-67.543-16.205-146.909-25.935-6.167-.756-62.927-7.581-79.91-9.7-61.917-7.73-105.438-14.368-142.439-22.38-45.734-9.904-77.164-21.27-93.798-34.967-39.053-32.159 4.95-77.245 151.123-140.41 84.032-36.312 133.037-66.532 148.427-89.892 13.945-21.168-.18-36.11-37.692-43.664-71.843-14.466-217.863.074-337.642 34.391-29.31 8.398-60.669 18.903-103.222 34.252-8.928 3.22-89.31 32.7-114.446 41.643-68.689 24.441-125.593 42.434-184.128 57.293-71.655 18.189-141.635 30.368-212.947 36.154-72.022 5.843-117.383-2.539-139.36-22.992-18.329-17.056-19.946-42.06-8.039-72.97 6.447-16.733 16.627-34.562 29.52-52.824 8.123-11.506 16.828-22.487 25.532-32.568a389.252 389.252 0 0 1 8.413-9.444c.888-.963 1.676-1.806 2.355-2.523-1.44.126-2.23.972-3.121 1.938z" id="Stroke-19"/><path d="M77.3 55.284a375.442 375.442 0 0 0-7.993 9.193c-8.267 9.81-16.533 20.496-24.25 31.698-12.294 17.847-21.996 35.278-28.13 51.657-11.543 30.824-9.689 55.772 8.879 72.664 22.177 20.175 67.394 27.976 138.878 21.34 68.513-6.362 136.205-18.675 205.918-36.627 57.049-14.692 112.843-32.328 180.186-56.116 25.213-8.906 106.885-38.62 119.236-43.027 44.023-15.71 76.652-26.453 106.957-34.864 119.874-33.27 264.236-46.726 335.337-31.963 36.725 7.625 50.465 22.026 37.563 42.356-14.566 22.95-62.144 52.691-144.072 88.337-142.333 61.927-185.053 107.022-145.44 140.12 16.67 13.928 47.74 25.569 92.78 35.847 36.41 8.308 79.262 15.301 139.817 23.46 17.107 2.306 75.251 9.853 84.67 11.106 74.297 9.885 114.476 17.08 138.98 26.271 29.773 11.168 30.14 24.171-2.94 41.477 34.278-16.884 33.885-30.854 3.321-42.318-24.611-9.232-64.826-16.433-139.217-26.33-9.42-1.254-67.563-8.8-84.667-11.105-60.525-8.156-103.351-15.145-139.721-23.444-44.889-10.243-75.834-21.838-92.347-35.635-38.77-32.392 3.445-76.955 145.195-138.628 82.104-35.723 129.807-65.541 144.507-88.703 13.335-21.012-.925-35.957-38.207-43.698-71.297-14.804-215.824-1.332-335.85 31.98-30.335 8.42-62.986 19.17-107.031 34.886-12.356 4.41-94.026 34.123-119.233 43.027-67.316 23.778-123.082 41.406-180.096 56.088-69.66 17.939-137.295 30.242-205.747 36.597-71.215 6.612-116.156-1.142-138.07-21.077-18.245-16.598-20.073-41.197-8.64-71.727 6.106-16.304 15.775-33.676 28.032-51.468C53.603 85.483 61.852 74.82 70.1 65.031a374.516 374.516 0 0 1 7.973-9.17 242.86 242.86 0 0 1 2.232-2.449c-1.412.113-2.161.934-3.006 1.872z" id="Stroke-21"/><path d="M74.371 60.5a360.73 360.73 0 0 0-7.555 8.914c-7.814 9.514-15.628 19.88-22.921 30.748-11.673 17.392-20.873 34.381-26.666 50.344-11.047 30.444-8.963 54.984 9.535 71.411 22.127 19.65 66.926 26.813 137.588 19.397 65.685-6.894 131.02-19.312 198.695-37.011 55.481-14.51 110.064-31.78 175.99-54.924 25-8.777 108.583-38.973 124.121-44.46 45.542-16.087 79.494-27.075 110.834-35.491 120.121-32.26 262.984-44.658 333.546-29.559 36.5 7.81 50.384 22.228 38.073 42.405-13.878 22.745-60.15 52.082-140.141 87.137-137.902 60.434-178.824 105.017-139.515 138.344 16.547 14.03 47.135 25.903 91.328 36.524 35.783 8.599 77.944 15.946 137.11 24.53 17.037 2.473 77.749 10.956 90.062 12.731 69.15 9.971 107.675 17.405 130.81 26.518 27.882 10.983 28.439 23.44-1.93 39.636 31.57-15.783 30.972-29.188 2.328-40.47-23.244-9.157-61.81-16.598-131.051-26.583-12.317-1.776-73.028-10.258-90.061-12.73-59.136-8.58-101.27-15.923-137.013-24.512-44.044-10.585-74.507-22.41-90.902-36.31-38.489-32.632 1.937-76.675 139.268-136.858 80.171-35.134 126.57-64.552 140.581-87.516 12.726-20.856-1.67-35.804-38.718-43.731-70.758-15.142-213.785-2.73-334.058 29.571-31.372 8.425-65.347 19.42-110.912 35.515-15.544 5.49-99.125 35.685-124.12 44.46-65.9 23.135-120.457 40.397-175.906 54.898-67.624 17.686-132.906 30.094-198.534 36.982-70.392 7.388-114.914.269-136.774-19.144-18.17-16.135-20.225-40.326-9.284-70.474 5.766-15.889 14.933-32.819 26.569-50.156 7.276-10.842 15.073-21.184 22.87-30.677 2.728-3.322 5.261-6.3 7.535-8.892.795-.906 1.501-1.7 2.11-2.374-1.385.1-2.094.897-2.892 1.806z" id="Stroke-23"/><path d="M71.441 65.713a346.054 346.054 0 0 0-7.12 8.633c-7.364 9.214-14.729 19.255-21.603 29.785-11.067 16.954-19.774 33.518-25.226 49.08C6.96 183.27 9.29 207.4 27.727 223.358c22.089 19.119 66.468 25.637 136.294 17.433 62.893-7.39 125.863-19.893 191.462-37.334 53.87-14.323 107.168-31.225 171.633-53.745 24.405-8.526 110.568-39.462 129.104-45.947 47.088-16.473 82.395-27.707 114.783-36.113 120.365-31.243 261.726-42.59 331.754-27.156 36.272 7.994 50.298 22.428 38.579 42.452-13.192 22.54-58.157 51.476-136.207 85.942-133.473 58.94-172.597 103.017-133.588 136.578 16.428 14.133 46.534 26.243 89.884 37.208 35.16 8.893 76.631 16.6 134.412 25.606 16.642 2.594 81.198 12.28 96.22 14.628 63.797 9.966 100.421 17.595 122.064 26.59 25.838 10.738 26.518 22.61-1.13 37.674 28.85-14.659 28.118-27.459 1.545-38.502-21.752-9.04-58.42-16.678-122.31-26.66-15.026-2.347-79.582-12.033-96.22-14.627-57.75-9.002-99.194-16.703-134.313-25.586-43.204-10.928-73.187-22.988-89.465-36.992-38.213-32.877.424-76.405 133.338-135.098 78.234-34.548 123.328-63.567 136.652-86.333 12.116-20.7-2.413-35.651-39.226-43.765-70.223-15.476-211.746-4.116-332.264 27.166-32.421 8.415-67.753 19.657-114.867 36.139-18.542 6.486-104.704 37.423-129.103 45.947-64.442 22.512-117.716 39.406-171.555 53.72-65.552 17.429-128.472 29.922-191.31 37.305-69.557 8.173-113.658 1.695-135.477-17.19-18.104-15.67-20.4-39.448-9.971-69.212 5.426-15.488 14.102-31.992 25.133-48.89C50.435 94.091 57.782 84.073 65.13 74.88a345.135 345.135 0 0 1 7.1-8.61c.75-.877 1.415-1.645 1.989-2.297-1.358.087-2.026.859-2.778 1.74z" id="Stroke-25"/><path d="M68.51 70.926a331.424 331.424 0 0 0-6.69 8.347c-6.918 8.909-13.836 18.621-20.293 28.81-10.477 16.532-18.7 32.687-23.813 47.862-9.998 29.674-7.406 53.389 10.98 68.875 22.061 18.583 66.02 24.45 134.995 15.45 60.136-7.846 120.733-20.414 184.22-37.593 52.213-14.128 104.154-30.658 167.111-52.572 23.27-8.1 112.792-40.076 134.185-47.493 48.666-16.873 85.362-28.354 118.809-36.734 120.607-30.218 260.46-40.523 329.96-24.756 36.041 8.177 50.21 22.627 39.08 42.5-12.506 22.335-56.162 50.87-132.265 84.749-129.05 57.45-166.373 101.023-127.66 134.824 16.31 14.24 45.938 26.589 88.448 37.9 34.54 9.191 75.324 17.262 131.723 26.687 15.688 2.622 85.657 13.875 103.313 16.866 58.198 9.857 92.612 17.62 112.607 26.444 23.615 10.42 24.339 21.662-.572 35.565 26.112-13.506 25.33-25.652 1.009-36.384-20.107-8.873-54.57-16.647-112.861-26.52-17.661-2.992-87.632-14.245-103.315-16.866-56.368-9.42-97.124-17.485-131.623-26.665-42.367-11.274-71.873-23.57-88.037-37.683-37.941-33.128-1.094-76.145 127.408-133.35 76.29-33.964 120.08-62.585 132.717-85.154 11.504-20.545-3.157-35.498-39.73-43.796-69.695-15.811-209.709-5.494-330.468 24.762-33.483 8.389-70.206 19.878-118.9 36.76-21.398 7.42-110.92 39.396-134.185 47.494-62.935 21.907-114.854 38.43-167.04 52.55-63.442 17.166-123.991 29.725-184.076 37.564-68.706 8.965-112.387 3.135-134.174-15.216-18.047-15.201-20.6-38.566-10.703-67.941 5.087-15.102 13.28-31.197 23.723-47.674 6.441-10.163 13.343-19.852 20.244-28.74a330.509 330.509 0 0 1 6.67-8.323c.705-.849 1.33-1.59 1.868-2.222-1.331.076-1.959.822-2.665 1.673z" id="Stroke-27"/><path d="M65.576 76.137a316.85 316.85 0 0 0-6.26 8.056c-6.477 8.6-12.953 17.978-18.997 27.822-9.903 16.127-17.653 31.89-22.427 46.696-9.441 29.283-6.572 52.58 11.772 67.591 22.047 18.041 65.585 23.25 133.693 13.446 57.413-8.264 115.628-20.874 176.965-37.783 50.513-13.925 101.022-30.079 162.423-51.402 21.357-7.417 115.22-40.803 139.362-49.105 50.277-17.288 88.397-29.018 122.917-37.355 120.848-29.187 259.188-38.458 328.163-22.358 35.81 8.358 50.118 22.824 39.58 42.547-11.822 22.13-54.167 50.264-128.318 83.559-124.632 55.96-160.153 99.036-121.73 133.085 16.194 14.35 45.348 26.94 87.02 38.601 33.925 9.493 74.025 17.933 129.046 27.774 13.73 2.455 91.267 15.799 111.547 19.533 52.297 9.628 84.12 17.44 102.277 26.026 21.176 10.013 21.85 20.563-.305 33.27 23.35-12.316 22.62-23.744.767-34.077-18.27-8.64-50.148-16.466-102.54-26.111-20.288-3.735-97.829-17.08-111.553-19.534-54.99-9.835-95.061-18.27-128.945-27.75-41.532-11.622-70.565-24.16-86.617-38.384-37.675-33.386-2.619-75.899 121.475-131.617 74.343-33.38 116.824-61.606 128.776-83.978 10.894-20.39-3.898-35.345-40.231-43.826-69.17-16.145-207.67-6.863-328.669 22.36-34.559 8.347-72.708 20.086-123.014 37.384-24.149 8.304-118.013 41.69-139.364 49.106-61.382 21.316-111.87 37.463-162.357 51.38-61.295 16.898-119.466 29.5-176.831 37.757-67.84 9.764-111.1 4.589-132.869-13.224-18-14.73-20.825-37.676-11.48-66.659 4.75-14.732 12.47-30.435 22.34-46.508 6.028-9.818 12.488-19.173 18.948-27.752 2.26-3.002 4.36-5.692 6.243-8.032.66-.818 1.244-1.534 1.748-2.143-1.305.064-1.893.784-2.555 1.605z" id="Stroke-29"/><path d="M62.642 81.347a302.343 302.343 0 0 0-5.839 7.76c-6.038 8.285-12.076 17.325-17.711 26.819-9.344 15.74-16.63 31.13-21.065 45.581-8.866 28.89-5.702 51.766 12.61 66.297 22.044 17.493 65.162 22.037 132.388 11.422 54.724-8.64 110.55-21.27 169.701-37.901 48.766-13.712 97.766-29.482 157.564-50.23 18.257-6.334 117.82-41.637 144.633-50.787 51.924-17.72 91.505-29.703 127.112-37.98 121.083-28.148 257.906-36.394 326.363-19.963 35.574 8.538 50.02 23.02 40.076 42.592-11.14 21.925-52.173 49.662-124.366 82.373-120.22 54.473-153.936 97.059-115.798 131.362 16.081 14.465 44.765 27.3 85.603 39.313 33.315 9.8 72.734 18.615 126.382 28.866 9.863 1.885 98.267 18.146 121.19 22.757 46.014 9.256 74.774 17.004 90.854 25.262 18.48 9.49 18.994 19.271-.38 30.732 20.556-11.075 19.997-21.703.872-31.525-16.197-8.318-45.017-16.082-91.13-25.358-22.933-4.612-111.345-20.875-121.2-22.758-53.617-10.246-93.007-19.055-126.28-28.842-40.702-11.972-69.265-24.754-85.208-39.094-37.414-33.652-4.15-75.667 115.54-129.9 72.39-32.8 113.562-60.631 124.829-82.806 10.28-20.235-4.64-35.192-40.73-43.854-68.648-16.477-205.63-8.221-326.865 19.962-35.648 8.286-75.26 20.278-127.215 38.008-26.82 9.154-126.387 44.457-144.638 50.79-59.78 20.742-108.76 36.506-157.503 50.21-59.113 16.62-114.898 29.241-169.577 37.875-66.958 10.572-109.798 6.058-131.56-11.212-17.962-14.253-21.077-36.779-12.304-65.366 4.413-14.379 11.67-29.709 20.981-45.394 5.62-9.468 11.643-18.485 17.666-26.748a301.435 301.435 0 0 1 5.82-7.736 193.18 193.18 0 0 1 1.63-2.064c-1.28.053-1.828.746-2.445 1.537z" id="Stroke-31"/><path d="M59.705 86.555a287.914 287.914 0 0 0-5.42 7.458c-5.605 7.965-11.21 16.66-16.442 25.8-8.8 15.37-15.63 30.406-19.727 44.521-8.269 28.492-4.794 50.944 13.497 64.992 22.054 16.94 64.751 20.812 131.081 9.378 52.066-8.975 105.495-21.599 162.427-37.943 46.973-13.485 94.383-28.863 152.532-49.05 13.23-4.594 120.567-42.574 149.996-52.549 53.606-18.17 94.689-30.409 131.396-38.61 121.315-27.101 256.617-34.332 324.559-17.571 35.336 8.717 49.92 23.213 40.568 42.638-10.458 21.72-50.177 49.06-120.404 81.191-115.813 52.987-147.723 95.09-109.864 129.657 15.972 14.582 44.188 27.668 84.196 40.035 32.71 10.11 71.453 19.307 123.732 29.966 10.58 2.157 21.579 4.35 35.108 7.01 6.36 1.252 29.37 5.754 34.32 6.727 27.976 5.497 46.232 9.224 63.135 12.975 39.25 8.71 64.362 16.236 78.068 24.045 15.479 8.819 15.708 17.73-.85 27.88 17.72-9.765 17.47-19.485 1.38-28.652-13.827-7.877-39.008-15.424-78.361-24.157-16.914-3.753-35.177-7.482-63.16-12.98-4.952-.974-27.96-5.476-34.32-6.727a5083.968 5083.968 0 0 1-35.102-7.01c-52.247-10.651-90.96-19.841-123.628-29.94-39.874-12.324-67.973-25.356-83.81-39.815-37.16-33.928-5.687-75.452 109.605-128.2 70.427-32.223 110.289-59.661 120.87-81.64 9.67-20.081-5.38-35.04-41.221-43.881-68.134-16.809-203.594-9.57-325.06 17.566-36.751 8.21-77.867 20.459-131.506 38.64-29.437 9.978-136.779 47.96-150.004 52.551-58.131 20.182-105.525 35.554-152.476 49.033-56.896 16.334-110.288 28.95-162.312 37.917-66.063 11.388-108.482 7.54-130.25-9.18-17.935-13.774-21.356-35.875-13.175-64.063 4.076-14.043 10.88-29.019 19.647-44.334 5.217-9.113 10.807-17.786 16.397-25.73a287.01 287.01 0 0 1 5.403-7.434c.57-.757 1.076-1.419 1.512-1.982-1.256.042-1.765.707-2.337 1.468z" id="Stroke-33"/><path d="M56.766 91.761a273.575 273.575 0 0 0-5.006 7.15 316.238 316.238 0 0 0-15.188 24.761c-8.27 15.022-14.655 29.722-18.414 43.52-7.65 28.09-3.846 50.114 14.433 63.675 22.078 16.38 64.356 19.575 129.773 7.314 91.153-17.084 180.026-43.164 302.461-85.76 4.748-1.652 123.44-43.609 155.452-54.395 55.328-18.641 97.955-31.142 135.779-39.248 121.54-26.048 255.317-32.273 322.749-15.184 35.095 8.894 49.815 23.405 41.056 42.682-9.777 21.515-48.18 48.46-116.433 80.014-111.412 51.504-141.514 93.131-103.926 127.97 15.865 14.706 43.619 28.047 82.802 40.771 32.111 10.428 70.182 20.014 121.097 31.074 11.733 2.55 23.803 5.108 39.394 8.365 1.717.359 30.176 6.286 38.239 7.979 30.187 6.34 50.5 10.849 68.4 15.312 31.87 7.946 52.622 15.035 63.588 22.223 12.132 7.953 11.938 15.855-1.755 24.605 14.824-8.36 15.036-17.02 2.34-25.343-11.095-7.272-31.927-14.388-63.91-22.363-17.916-4.467-38.239-8.978-68.439-15.32-8.063-1.694-36.523-7.621-38.24-7.98-15.587-3.257-27.655-5.814-39.385-8.363-50.883-11.053-88.923-20.632-120.993-31.046-39.052-12.681-66.69-25.967-82.425-40.55-36.912-34.214-7.234-75.256 103.666-126.523 68.458-31.647 107.006-58.695 116.904-80.478 9.054-19.926-6.12-34.886-41.712-43.906-67.623-17.137-201.556-10.905-323.247 15.175-37.87 8.117-80.533 20.627-135.897 39.28-32.02 10.79-150.72 52.75-155.461 54.399-122.389 42.58-211.217 68.647-302.306 85.72-65.151 12.21-107.15 9.036-128.94-7.129-17.917-13.293-21.661-34.966-14.093-62.75 3.739-13.726 10.097-28.366 18.337-43.332A315.356 315.356 0 0 1 52.61 99.39a272.676 272.676 0 0 1 4.99-7.127c.526-.726.993-1.36 1.396-1.9-1.232.031-1.702.67-2.231 1.398z" id="Stroke-35"/><path d="M53.824 96.965a259.345 259.345 0 0 0-4.599 6.836 302.586 302.586 0 0 0-13.951 23.702c-7.756 14.692-13.702 29.08-17.122 42.58-7.012 27.683-2.86 49.276 15.418 62.346 22.116 15.814 63.974 18.325 128.463 5.23 86.346-17.533 171.22-43.024 289.77-84.421 12.583-4.394 25.45-8.926 41.835-14.727 3.843-1.36 32.549-11.535 40.846-14.469 32.934-11.645 56.024-19.668 78.315-27.14 57.092-19.136 101.31-31.904 140.266-39.9 121.762-24.987 254.008-30.216 320.933-12.8 34.851 9.07 49.706 23.596 41.54 42.726-9.095 21.311-46.178 47.863-112.451 78.842-107.018 50.024-135.31 91.185-97.985 126.308 15.763 14.833 43.06 28.435 81.422 41.52 31.52 10.75 68.924 20.733 118.48 32.19 20.16 4.662 88.59 19.83 88.066 19.711 32.992 7.424 55.384 12.901 73.823 18.262 23.733 6.9 39.296 13.25 47.102 19.571 8.425 6.822 7.68 13.525-3.076 20.742 11.84-6.814 12.662-14.199 3.74-21.422-7.942-6.431-23.6-12.82-47.462-19.757-18.465-5.37-40.875-10.85-73.886-18.28.519.118-67.906-15.048-88.06-19.708-49.524-11.45-86.897-21.425-118.376-32.161-38.235-13.042-65.418-26.587-81.054-41.3-36.674-34.51-8.79-75.079 97.723-124.867 66.48-31.075 103.713-57.735 112.927-79.322 8.44-19.773-6.86-34.733-42.198-43.93-67.115-17.465-199.517-12.23-321.428 12.788-39.007 8.005-83.262 20.785-140.392 39.933-22.297 7.474-45.392 15.5-78.331 27.146-8.298 2.934-37.004 13.109-40.846 14.47-16.385 5.8-29.25 10.33-41.831 14.724-118.508 41.383-203.342 66.862-289.63 84.383-64.224 13.041-105.805 10.547-127.627-5.058-17.912-12.808-21.996-34.05-15.061-61.427 3.4-13.426 9.322-27.753 17.048-42.389a301.707 301.707 0 0 1 13.91-23.632c1.66-2.549 3.201-4.83 4.584-6.812.483-.694.913-1.3 1.282-1.815-1.209.02-1.64.63-2.127 1.327z" id="Stroke-37"/><path d="M50.88 102.167a245.237 245.237 0 0 0-4.198 6.515 289.05 289.05 0 0 0-12.736 22.62c-7.255 14.383-12.772 28.479-15.85 41.7-6.353 27.275-1.836 48.432 16.453 61.008 22.168 15.242 63.608 17.063 127.153 3.126 81.567-17.888 162.272-42.725 276.878-82.962 19.858-6.971 90.156-31.946 85.517-30.303 33.395-11.825 57.833-20.307 81.112-28.076 58.9-19.656 104.76-32.702 144.867-40.567 121.975-23.92 252.686-28.163 319.109-10.42 34.602 9.243 49.59 23.782 42.02 42.766-8.416 21.108-44.176 47.268-108.46 77.676-102.632 48.547-129.11 89.253-92.038 124.672 15.665 14.967 42.51 28.835 80.057 42.285 30.937 11.081 67.68 21.468 115.884 33.317 20.797 5.113 90.51 21.483 101.698 24.198 36.432 8.842 60.602 15.55 78.221 22.065 14.79 5.469 24.325 10.648 28.589 15.73 4.471 5.329 3.118 10.561-4.587 16.044 8.72-5.05 10.216-10.834 5.382-16.597-4.404-5.248-14.063-10.494-29.007-16.02-17.669-6.534-41.87-13.25-78.34-22.101-11.194-2.717-80.905-19.086-101.695-24.197-48.171-11.842-84.883-22.22-115.778-33.286-37.424-13.405-64.158-27.216-79.7-42.066-36.444-34.82-10.357-74.926 91.776-123.237 64.495-30.507 100.408-56.78 108.938-78.172 7.823-19.62-7.599-34.58-42.679-43.95-66.611-17.794-197.478-13.545-319.6 10.403-40.162 7.876-86.062 20.933-145.002 40.603-23.286 7.771-47.73 16.255-81.13 28.082 4.638-1.642-65.658 23.331-85.514 30.302-114.568 40.224-195.237 65.05-276.752 82.927-63.282 13.878-104.445 12.07-126.316-2.968-17.917-12.32-22.359-33.127-16.079-60.093 3.063-13.148 8.555-27.182 15.782-41.51a288.175 288.175 0 0 1 12.697-22.55 244.344 244.344 0 0 1 4.183-6.491c.441-.66.833-1.238 1.17-1.728-1.187.01-1.58.591-2.025 1.255z" id="Stroke-39"/><path d="M47.933 107.366a231.263 231.263 0 0 0-3.805 6.186 275.641 275.641 0 0 0-11.544 21.514c-6.767 14.096-11.86 27.924-14.597 40.889-5.67 26.86-.77 47.578 17.542 59.655 22.234 14.665 63.257 15.788 125.843 1.004 12.88-3.043 25.98-6.328 39.334-9.856 65.945-17.424 131.82-38.76 224.449-71.514 18.274-6.463 79.465-28.312 88.372-31.474 33.932-12.047 59.679-20.982 83.97-29.062 60.754-20.205 108.31-33.537 149.589-41.255 122.18-22.844 251.352-26.113 317.275-8.045 34.35 9.414 49.47 23.967 42.496 42.807-7.737 20.903-42.17 46.675-104.452 76.515-98.256 47.075-122.916 87.337-86.088 123.066 15.572 15.107 41.973 29.25 78.711 43.068 30.363 11.42 66.452 22.22 113.31 34.455 19.227 5.02 101.017 25.36 120.053 30.43 40.317 10.74 64.813 19.048 77.66 27.063 11.314 7.06 12.884 13.572 4.165 20.238 9.942-6.412 8.203-13.625-3.6-20.989-12.966-8.09-37.52-16.418-77.944-27.185-19.047-5.073-100.84-25.413-120.058-30.431-46.825-12.227-82.882-23.017-113.204-34.422-36.618-13.773-62.91-27.857-78.364-42.85-36.225-35.144-11.936-74.8 85.824-121.638 62.5-29.943 97.09-55.833 104.935-77.03 7.205-19.466-8.338-34.426-43.156-43.969-66.11-18.12-195.436-14.846-317.764 8.025-41.337 7.729-88.935 21.073-149.73 41.293-24.3 8.081-50.054 17.02-83.992 29.068-8.908 3.163-70.098 25.012-88.37 31.473-92.604 32.746-158.455 54.074-224.366 71.49a1538.714 1538.714 0 0 1-39.306 9.848c-62.325 14.723-103.072 13.607-125.005-.86-17.935-11.828-22.752-32.196-17.147-58.747 2.72-12.89 7.792-26.657 14.532-40.696a274.77 274.77 0 0 1 11.506-21.445 230.378 230.378 0 0 1 3.79-6.162c.4-.626.756-1.174 1.062-1.638-1.166 0-1.524.551-1.926 1.181z" id="Stroke-41"/><path d="M44.983 112.563a217.446 217.446 0 0 0-3.421 5.848 262.372 262.372 0 0 0-10.377 20.38c-6.293 13.832-10.97 27.416-13.36 40.147-4.967 26.442.335 46.717 18.681 58.293 22.316 14.08 62.925 14.5 124.536-1.14 26.757-6.793 54.58-14.636 83.937-23.599 49.044-14.974 98.539-31.766 166.537-56.03 14.682-5.239 75.658-27.155 91.244-32.711 34.53-12.308 61.563-21.7 86.895-30.104 62.656-20.786 111.969-34.417 154.442-41.97 122.376-21.76 250.003-24.066 315.429-5.675 34.093 9.584 49.342 24.149 42.967 42.846-7.058 20.7-40.158 46.085-100.43 75.362-93.888 45.607-116.726 85.44-80.13 121.495 15.485 15.256 41.45 29.681 77.386 43.873 29.8 11.768 65.243 22.99 110.762 35.605 12.05 3.338 24.617 6.728 39.744 10.737 8.243 2.184 35.505 9.356 38.38 10.115 31.2 8.24 50.293 13.513 67.221 18.72 43.096 13.26 62.206 23.642 58.058 33.316-.638 1.489-1.84 2.98-3.623 4.471 2.565-.91 3.856-2.511 4.554-4.14 4.508-10.515-14.83-21.02-58.668-34.508-16.946-5.214-36.05-10.49-67.264-18.733-2.875-.759-30.136-7.931-38.378-10.115-15.124-4.008-27.688-7.396-39.732-10.734-45.487-12.605-80.897-23.817-110.656-35.569-35.82-14.146-61.678-28.512-77.05-43.656-36.017-35.484-13.53-74.705 79.867-120.074 60.492-29.384 93.753-54.893 100.914-75.895 6.586-19.314-9.076-34.273-43.627-43.985-65.613-18.444-193.392-16.135-315.916 5.652-42.534 7.563-91.891 21.206-154.592 42.007-25.341 8.407-52.381 17.801-86.918 30.112-15.588 5.556-76.563 27.473-91.244 32.711-67.984 24.259-117.465 41.046-166.49 56.014-29.342 8.959-57.148 16.797-83.888 23.585-61.352 15.575-101.685 15.158-123.697 1.269-17.963-11.334-23.174-31.261-18.266-57.392 2.377-12.656 7.033-26.178 13.3-39.953a261.504 261.504 0 0 1 10.341-20.31 216.564 216.564 0 0 1 3.407-5.825c.36-.591.679-1.108.953-1.547-1.145-.009-1.467.512-1.828 1.107z" id="Stroke-43"/><path d="M38.983 123.258c-3.15 5.889-6.3 12.36-9.24 19.214-5.83 13.593-10.096 26.96-12.137 39.481-4.24 26.019 1.483 45.847 19.875 56.917 22.414 13.49 62.61 13.2 123.23-3.303 36.702-9.991 75.567-21.944 118.572-36.295 34.984-11.674 70.604-24.188 118.38-41.425 4.807-1.734 74.253-26.903 94.124-34.024 35.178-12.606 63.484-22.462 89.885-31.207 64.61-21.401 115.744-35.345 159.434-42.714 122.564-20.67 248.64-22.024 313.57-3.311 33.832 9.75 49.21 24.327 43.435 42.883-6.378 20.496-38.14 45.497-96.388 74.217-89.532 44.145-110.544 83.565-74.166 119.964 15.406 15.414 40.943 30.13 76.085 44.701 29.25 12.128 64.056 23.784 108.245 36.769 12.495 3.671 25.54 7.395 41.142 11.766 8.797 2.465 37.963 10.57 39.573 11.019 32.146 8.964 51.386 14.589 68.183 20.11 20.655 6.788 34.792 12.626 43.083 18.024 8.98 5.847 10.916 11.028 5.634 15.996 6.52-4.825 4.36-10.608-5.052-16.736-8.386-5.46-22.59-11.325-43.325-18.14-16.817-5.528-36.07-11.156-68.23-20.124-1.611-.45-30.776-8.554-39.572-11.019-15.598-4.37-28.638-8.092-41.129-11.762-44.156-12.976-78.93-24.62-108.137-36.73-35.03-14.525-60.464-29.182-75.76-44.486-35.824-35.845-15.141-74.648 73.902-118.552 58.471-28.83 90.399-53.961 96.874-74.77 5.964-19.161-9.815-34.119-44.095-43.998-65.117-18.766-191.343-17.41-314.054 3.285-43.754 7.379-94.937 21.336-159.594 42.753-26.41 8.748-54.724 18.606-89.91 31.215-19.872 7.122-89.32 32.291-94.125 34.025-47.769 17.234-83.382 29.746-118.357 41.417-42.987 14.345-81.833 26.292-118.513 36.278-60.364 16.433-100.285 16.72-122.392 3.415-18.004-10.837-23.628-30.318-19.437-56.025 2.028-12.445 6.274-25.75 12.079-39.283a248.385 248.385 0 0 1 9.207-19.147 202.915 202.915 0 0 1 3.033-5.477c.32-.556.603-1.042.848-1.454-2.654 2.63-3.678 4.471-4.78 6.533z" id="Stroke-45"/><path d="M36.388 128.091a236.273 236.273 0 0 0-8.136 18.015c-5.377 13.377-9.236 26.555-10.92 38.893-3.495 25.591 2.669 44.968 21.12 55.53 22.529 12.893 62.315 11.887 121.931-5.486 43.726-12.742 90.485-28.145 146.074-47.803 22.899-8.098 46.393-16.586 77.135-27.824 10.378-3.794 45.42-16.637 48.867-17.9 19.229-7.038 33.95-12.4 48.136-17.518 35.865-12.94 65.44-23.273 92.942-32.378 66.616-22.054 119.646-36.327 164.58-43.493 122.74-19.572 247.257-19.988 311.694-.955 33.565 9.915 49.069 24.502 43.897 42.919-5.7 20.292-36.118 44.912-92.327 73.08-85.187 42.69-104.368 81.717-68.191 118.481 15.334 15.584 40.454 30.602 74.812 45.558 28.713 12.499 62.893 24.6 105.763 37.947 21.291 6.63 27.392 8.437 78.083 23.305 32.442 9.516 50.123 14.89 66.384 20.343 20.334 6.82 34.379 12.554 42.96 17.752 9.326 5.65 11.989 10.527 7.944 14.989 5.313-4.431 2.36-9.84-7.39-15.746-8.664-5.248-22.765-11.007-43.168-17.849-16.278-5.459-33.968-10.836-66.424-20.355-50.683-14.866-56.782-16.673-78.065-23.3-42.837-13.337-76.984-25.426-105.655-37.907-34.25-14.909-59.27-29.867-74.5-45.344-35.646-36.226-16.772-74.631 67.929-117.077 56.437-28.282 87.024-53.038 92.813-73.652 5.34-19.011-10.554-33.966-44.556-44.01-64.623-19.087-189.289-18.67-312.175.925-45.003 7.176-98.083 21.463-164.75 43.534-27.512 9.108-57.095 19.444-92.969 32.387-14.187 5.12-28.91 10.481-48.14 17.52-3.448 1.263-38.49 14.106-48.867 17.9-30.739 11.236-54.23 19.724-77.124 27.82-55.572 19.652-102.313 35.049-146.017 47.785-59.362 17.299-98.874 18.298-121.093 5.58-18.059-10.335-24.113-29.367-20.661-54.646 1.674-12.261 5.514-25.375 10.868-38.692a235.413 235.413 0 0 1 8.105-17.949c.967-1.92 1.865-3.635 2.67-5.12.282-.519.532-.972.747-1.357-2.453 2.447-3.355 4.17-4.326 6.098z" id="Stroke-47"/><path d="M33.776 132.91a223.446 223.446 0 0 0-7.07 16.779c-4.934 13.186-8.39 26.206-9.71 38.388-2.725 25.16 3.898 44.081 22.422 54.13 22.66 12.29 62.039 10.562 120.636-7.687 48.383-15.069 99.393-32.847 168.308-58.191 12.217-4.494 24.834-9.161 40.928-15.136 118.76-44.089 145.483-53.811 195.943-70.526 68.68-22.75 123.685-37.372 169.894-44.315 122.907-18.468 245.854-17.957 309.798 1.394 33.292 10.075 48.92 24.672 44.353 42.951-5.019 20.09-34.085 44.332-88.24 71.955-80.855 41.242-98.197 79.898-62.204 117.054 15.273 15.766 39.989 31.099 73.573 46.447 28.193 12.884 61.76 25.443 103.321 39.143 21.183 6.983 36.886 11.903 75.437 23.784 33.83 10.426 48.945 15.2 64.57 20.54 20.031 6.848 33.959 12.466 42.812 17.456 9.662 5.444 13.058 10.03 10.218 13.99 4.109-4.065.394-9.08-9.691-14.764-8.924-5.029-22.9-10.666-42.988-17.533-15.638-5.346-30.76-10.121-64.6-20.55-38.545-11.88-54.243-16.799-75.417-23.778-41.528-13.69-75.061-26.236-103.213-39.101-33.48-15.3-58.1-30.574-73.271-46.235-35.489-36.635-18.428-74.665 61.942-115.66 54.386-27.74 83.625-52.126 88.726-72.546 4.712-18.861-11.294-33.812-45.013-44.016-64.127-19.407-187.224-19.918-310.276-1.429-46.281 6.954-101.34 21.591-170.073 44.358-50.477 16.72-77.205 26.445-195.98 70.539a14039.213 14039.213 0 0 1-40.924 15.134c-68.899 25.34-119.895 43.112-168.257 58.174-58.346 18.171-97.453 19.888-119.8 7.766-18.126-9.833-24.63-28.413-21.939-53.258 1.312-12.105 4.75-25.06 9.662-38.185a222.59 222.59 0 0 1 7.042-16.713c.84-1.784 1.62-3.375 2.32-4.752.244-.48.461-.901.648-1.257-2.26 2.26-3.043 3.858-3.887 5.65z" id="Stroke-49"/><path d="M33.138 133.32a163.933 163.933 0 0 0-1.993 4.395 210.747 210.747 0 0 0-6.047 15.498c-4.5 13.023-7.554 25.916-8.498 37.974-1.935 24.723 5.168 43.185 23.777 52.716 22.808 11.683 61.784 9.226 119.347-9.907 50.815-16.89 98.302-34.25 186.548-67.588l8.488-3.207c106.44-40.228 148.69-55.753 201.99-73.437 70.803-23.491 127.872-38.486 175.387-45.187 123.061-17.356 244.43-15.933 307.878 3.734 33.012 10.233 48.762 24.839 44.805 42.982-4.338 19.888-32.043 43.755-84.124 70.84-76.54 39.804-92.036 78.118-56.203 115.695 28.307 29.684 85.418 57.085 173.3 87.732 20.987 7.319 40.298 13.708 72.775 24.215 39.22 12.688 47.942 15.547 62.735 20.696 40.724 14.175 58.345 23.407 55.084 30.139 4.6-7.24-13.029-16.475-54.727-30.99-14.804-5.152-23.527-8.01-62.757-20.702-32.47-10.505-51.775-16.892-72.752-24.208-87.728-30.593-144.741-57.947-172.902-87.478-35.353-37.073-20.111-74.757 55.943-114.31 52.316-27.206 80.197-51.225 84.609-71.452 4.081-18.713-12.036-33.659-45.464-44.02-63.63-19.724-185.147-21.149-308.353-3.772-47.592 6.712-104.718 21.721-175.576 45.231-53.32 17.69-95.577 33.218-202.031 73.451l-8.489 3.208c-88.233 33.332-135.71 50.689-186.507 67.573-57.315 19.05-96.02 21.49-118.514 9.97-18.207-9.326-25.18-27.45-23.27-51.86.938-11.978 3.976-24.805 8.455-37.765a209.895 209.895 0 0 1 6.022-15.435 163.072 163.072 0 0 1 1.983-4.372c.65-1.35.716-1.483.75-1.55-1.27.356-1.458.745-1.669 1.19z" id="Stroke-51"/><path d="M28.49 142.502a198.148 198.148 0 0 0-5.072 14.173c-4.073 12.885-6.724 25.688-7.277 37.654-1.123 24.281 6.479 42.28 25.186 51.29 22.976 11.068 61.553 7.875 118.068-12.148 47.05-16.67 76.613-27.888 180.608-68.007 8.043-3.103 14.695-5.666 21.075-8.122 87.304-33.593 142.702-53.96 196.895-71.693 68.408-22.383 124.552-36.703 171.174-42.848 123.203-16.237 242.978-13.916 305.929 6.064 32.725 10.387 48.593 25 45.25 43.01-3.655 19.686-29.987 43.184-79.973 69.739-72.242 38.379-85.882 76.383-50.182 114.416 28.301 30.151 84.781 58.6 169.809 89.942 20.707 7.633 41.428 14.865 70.094 24.588 4.73 1.605 26.462 8.951 32.166 10.889 11.738 3.987 20.673 7.068 28.71 9.912 40.331 14.274 58.184 22.962 57.063 28.834 2.25-6.474-15.415-15.07-56.7-29.682-8.042-2.846-16.982-5.928-28.724-9.917-5.704-1.937-27.436-9.284-32.166-10.888-28.657-9.721-49.37-16.95-70.068-24.58-84.88-31.287-141.262-59.686-169.424-89.689-35.243-37.546-21.83-74.92 49.926-113.04 50.224-26.68 76.736-50.339 80.455-70.372 3.446-18.566-12.778-33.506-45.907-44.021-63.132-20.038-183.054-22.362-306.401-6.105-46.7 6.154-102.903 20.49-171.37 42.892-54.214 17.74-109.626 38.111-196.945 71.711-6.381 2.456-13.033 5.02-21.077 8.122-103.983 40.115-133.542 51.332-180.58 67.997-56.27 19.937-94.578 23.107-117.237 12.193C23.492 236 16.03 218.335 17.14 194.367c.55-11.885 3.186-24.62 7.239-37.44a197.3 197.3 0 0 1 5.05-14.112 150.163 150.163 0 0 1 1.664-3.98c.545-1.226.6-1.346.628-1.406-2.062 2.228-2.625 3.568-3.23 5.073z" id="Stroke-53"/><path d="M25.811 147.272a185.592 185.592 0 0 0-4.156 12.796c-3.65 12.773-5.894 25.524-6.04 37.436-.29 23.834 7.832 41.365 26.651 49.852 23.162 10.445 61.346 6.511 116.8-14.41 23.86-9 49.432-18.91 81.28-31.447 17.517-6.895 78.2-30.928 84.671-33.484a11105.758 11105.758 0 0 1 48.405-19.005c76.372-29.752 134.951-51.164 188.636-68.364 64.869-20.784 119.069-34.102 164.1-39.62 123.33-15.112 241.496-11.909 303.944 8.382 32.429 10.536 48.414 25.155 45.69 43.035-2.97 19.485-27.917 42.617-75.782 68.652-67.965 36.968-79.737 74.703-44.138 113.235 28.336 30.671 84.25 60.238 166.443 92.23 20.349 7.921 41.45 15.681 67.388 24.894 6.861 2.437 48.501 17.077 58.988 20.845 40.361 14.5 58.018 22.468 58.983 27.53-.081-5.749-17.456-13.589-58.616-28.377-10.49-3.769-52.133-18.41-58.991-20.846-25.93-9.21-47.021-16.966-67.359-24.882-82.052-31.939-137.868-61.453-166.07-91.98-35.166-38.062-23.59-75.166 43.885-111.867 48.105-26.166 73.235-49.469 76.259-69.31 2.807-18.419-13.523-33.352-46.344-44.016-62.628-20.35-180.94-23.557-304.414-8.427-45.11 5.528-99.37 18.86-164.298 39.664-53.71 17.208-112.307 38.626-188.697 68.386a11106.903 11106.903 0 0 0-48.41 19.006c-6.472 2.556-67.154 26.589-84.67 33.484-31.844 12.535-57.412 22.444-81.265 31.442-55.214 20.83-93.13 24.736-115.974 14.435-18.412-8.303-26.38-25.506-26.094-49.027.144-11.829 2.376-24.51 6.007-37.217a184.747 184.747 0 0 1 4.137-12.737c.493-1.347.951-2.542 1.362-3.573.446-1.099.491-1.206.514-1.26-1.868 1.988-2.329 3.19-2.825 4.545z" id="Stroke-55"/><path d="M23.103 152.024a172.978 172.978 0 0 0-3.303 11.364c-3.231 12.685-5.064 25.425-4.777 37.322.564 23.384 9.224 40.443 28.17 48.402 23.369 9.817 61.165 5.135 115.546-16.69 29.709-11.923 137.864-56.18 151.07-61.537 27.265-11.058 51.167-20.626 73.984-29.586 70.035-27.5 128.622-48.746 181.464-65.31 61.88-19.398 114.311-31.8 157.91-36.739 123.445-13.98 239.98-9.91 301.919 10.687 32.122 10.681 48.22 25.304 46.12 43.056-2.28 19.285-25.825 42.058-71.54 67.584-63.71 35.576-73.6 73.092-38.063 112.173 28.421 31.257 83.848 62.02 163.229 94.612 19.913 8.176 40.84 16.273 64.653 25.115a4392.934 4392.934 0 0 0 29.955 10.983c3.353 1.218 22.09 8.007 27.11 9.833 41.558 15.125 57.85 21.927 60.858 26.184-2.353-5.011-18.41-11.715-60.487-27.028-5.02-1.828-23.758-8.616-27.11-9.834a4391.803 4391.803 0 0 1-29.948-10.98c-23.803-8.839-44.719-16.932-64.62-25.103-79.248-32.536-134.575-63.245-162.87-94.362-35.126-38.63-25.402-75.516 37.817-110.817 45.957-25.662 69.688-48.615 72.011-68.262 2.161-18.276-14.269-33.2-46.772-44.01-62.118-20.656-178.797-24.73-302.385-10.734-43.679 4.947-96.174 17.365-158.113 36.781-52.87 16.573-111.478 37.827-181.534 65.336-22.822 8.961-46.727 18.53-73.995 29.59-13.21 5.358-121.362 49.614-151.067 61.535-54.144 21.73-91.674 26.38-114.722 16.697-18.537-7.787-27.033-24.524-27.59-47.596-.285-11.811 1.537-24.48 4.751-37.097a172.136 172.136 0 0 1 3.287-11.308c.392-1.19.755-2.245 1.082-3.153-1.28.632-1.646 1.694-2.04 2.892z" id="Stroke-57"/><path d="M20.361 156.758a160.15 160.15 0 0 0-2.524 9.873c-2.813 12.617-4.225 25.39-3.476 37.319 1.439 22.927 10.658 39.51 29.746 46.939 23.594 9.182 61.008 3.744 114.304-18.992 8.595-3.667 53.257-22.762 66.217-28.288 26.502-11.299 48.44-20.582 69.765-29.497 35.459-14.823 67.54-27.915 98.15-39.989 140.745-55.517 247.906-88.36 327.634-96.648 123.545-12.843 238.421-7.925 299.841 12.974 31.804 10.822 48.011 25.447 46.545 43.075-1.588 19.085-23.713 41.505-67.24 66.536-22.808 13.115-38.069 26.728-46.177 40.816-16.458 28.594-3.375 58.639 34.848 89.864 31.46 25.701 78.726 51.367 139.58 77.682 35.101 15.18 68.183 27.993 116.977 45.935 50.658 18.627 57.835 21.39 62.636 24.715-4.312-4.13-11.297-6.82-62.262-25.559-48.777-17.935-81.843-30.743-116.922-45.913-60.774-26.28-107.968-51.907-139.341-77.537-37.923-30.98-50.83-60.62-34.63-88.765 8.017-13.93 23.155-27.433 45.825-40.47 43.772-25.17 66.084-47.78 67.703-67.235 1.508-18.135-15.02-33.049-47.192-43.996-61.597-20.96-176.616-25.884-300.304-13.026-79.854 8.302-187.088 41.167-327.92 96.717-30.616 12.077-62.704 25.171-98.168 39.997-21.328 8.917-43.268 18.2-69.772 29.5-12.961 5.526-57.623 24.621-66.218 28.288-53.063 22.637-90.213 28.036-113.486 18.979-18.677-7.269-27.721-23.537-29.141-46.154-.743-11.84.66-24.54 3.458-37.086a159.313 159.313 0 0 1 2.51-9.821c.3-1.028.578-1.938.827-2.719-1.212.534-1.492 1.45-1.793 2.486z" id="Stroke-59"/><path d="M17.581 161.475a146.856 146.856 0 0 0-1.83 8.323c-2.394 12.559-3.373 25.415-2.125 37.424 2.335 22.467 12.133 38.57 31.377 45.463 23.842 8.541 60.881 2.342 113.08-21.314 116.78-52.925 203.47-90.028 288.469-121.935C557.815 67.669 648.59 42.192 717.187 35.699 840.817 24 954 29.747 1014.887 50.944c66.034 22.988 64.247 60.949-15.91 108.598-35.591 21.157-50.832 44.22-47.513 68.894 3.236 24.057 24.033 49.233 59.935 75.254 30.391 22.027 70.825 44.118 119.201 66.11 35.138 15.975 72.387 30.989 112.132 45.702 19.952 7.387 62.12 22.29 64.223 23.105-1.729-1.658-43.907-16.566-63.846-23.947-39.723-14.706-76.95-29.711-112.062-45.674-48.32-21.966-88.697-44.027-119.025-66.008-35.716-25.886-56.369-50.887-59.565-74.653-3.267-24.287 11.768-47.038 47.067-68.021 80.776-48.017 82.608-86.925 15.72-110.21-61.062-21.259-174.389-27.014-298.16-15.3-68.714 6.504-159.569 32.003-270.914 73.8-85.026 31.918-171.734 69.029-288.534 121.962-51.969 23.553-88.747 29.708-112.267 21.283-18.833-6.747-28.445-22.543-30.747-44.702-1.239-11.918-.265-24.698 2.115-37.183a146.022 146.022 0 0 1 1.819-8.276c.217-.86.418-1.62.598-2.27-1.151.434-1.354 1.2-1.573 2.067z" id="Stroke-61"/><path d="M14.758 166.18c-.42 1.985-.84 4.238-1.23 6.718-1.974 12.494-2.506 25.483-.71 37.63 3.25 22.001 13.648 37.62 33.063 43.976 24.111 7.893 60.784.924 111.873-23.66 99.88-48.06 196.86-90.64 285.775-124.168 109.955-41.462 201.864-66.883 270.668-72.752 123.698-10.552 235.148-3.996 295.483 17.493 65.15 23.204 64.781 60.798-11.05 107.608-42.035 25.95-52.323 55.853-34.608 88.714 15.167 28.135 50.515 57.8 101.789 87.943 41.7 24.516 92.371 48.387 145.072 69.413 40.662 16.224 80.054 29.569 95.812 33.015-15.454-4.315-54.798-17.645-95.41-33.848-52.656-21.009-103.28-44.858-144.931-69.344-51.135-30.062-86.367-59.628-101.435-87.58-17.486-32.437-7.365-61.856 34.273-87.56 76.445-47.19 76.823-85.713 10.852-109.208-60.51-21.552-172.1-28.116-295.94-17.552-68.926 5.88-160.918 31.323-270.958 72.817-88.947 33.54-185.954 76.132-285.86 124.205-50.864 24.476-87.278 31.395-111.066 23.607-19.006-6.221-29.206-21.542-32.412-43.24-1.78-12.053-1.252-24.961.709-37.38.39-2.465.806-4.704 1.223-6.675.146-.69.281-1.296.402-1.814-1.1.335-1.237.947-1.384 1.642z" id="Stroke-63"/><path d="M11.886 170.881a116.984 116.984 0 0 0-.742 5.073c-1.55 12.393-1.614 25.564.788 37.915 4.186 21.53 15.204 36.66 34.807 42.475 24.402 7.239 60.717-.506 110.687-26.026 91.2-46.574 191.208-91.61 283.077-126.405 108.783-41.2 201.717-66.525 270.704-71.765 123.749-9.398 233.41-2.056 293.17 19.718 64.215 23.397 65.285 60.629-6.093 106.644-38.15 24.593-46.767 53.966-29.254 86.839 15.098 28.339 49.325 58.654 98.182 89.242 41.003 25.67 90.975 50.589 140.607 71.004 43.094 17.726 81.497 30.092 98.593 32.003-16.845-2.8-55.175-15.143-98.18-32.832-49.582-20.394-99.503-45.288-140.453-70.925-48.727-30.506-82.844-60.724-97.85-88.89-17.298-32.469-8.82-61.36 28.933-85.699 71.985-46.406 70.889-84.547 5.886-108.23-59.934-21.838-169.734-29.19-293.624-19.78-69.113 5.248-162.134 30.597-271.005 71.831-91.907 34.81-191.95 79.86-283.182 126.452-49.75 25.407-85.808 33.097-109.888 25.954-19.196-5.694-30.004-20.537-34.133-41.769-2.382-12.252-2.318-25.34-.778-37.654.234-1.873.485-3.561.736-5.036.088-.515.17-.967.242-1.352-1.06.235-1.141.692-1.23 1.213z" id="Stroke-65"/><path d="M8.587 179.021c-1.126 12.198-.703 25.594 2.38 38.223 5.143 21.055 16.8 35.692 36.607 40.963 24.717 6.577 60.683-1.951 109.524-28.415 85.427-46.288 186.196-92.82 280.375-128.644C545.199 60.17 639.07 34.976 708.217 30.373c123.78-8.24 231.583-.137 290.737 21.915 63.217 23.568 65.752 60.44-1.019 105.707-34.31 23.26-41.284 52.12-23.986 85 15.03 28.57 48.133 59.55 94.586 90.537 40.213 26.825 89.02 52.585 136.192 72.575 43.922 18.613 81.924 30.234 101.386 30.973-19.25-1.642-57.155-13.233-100.964-31.798-47.114-19.965-95.865-45.695-136.023-72.484-46.332-30.907-79.331-61.789-94.275-90.195-17.096-32.497-10.236-60.883 23.681-83.878 67.368-45.672 64.772-83.43.8-107.279-59.326-22.117-167.267-30.23-291.188-21.98-69.276 4.611-163.24 29.831-271.057 70.842-94.223 35.84-195.034 82.393-280.5 128.702-48.626 26.347-84.337 34.815-108.733 28.324-19.401-5.163-30.84-19.526-35.91-40.288-3.059-12.524-3.478-25.834-2.36-37.949.117-1.275.243-2.412.369-3.397-1.12.89-1.248 2.036-1.366 3.321z" id="Stroke-67"/><path d="M5.842 182.222c-.708 11.797.22 25.443 4.08 38.431 6.117 20.576 18.436 34.717 38.462 39.44 25.057 5.91 60.685-3.41 108.388-30.829C237.784 182.7 338.4 135.064 434.438 98.38c106.767-40.783 201.506-65.82 270.788-69.782 123.788-7.077 229.648 1.76 288.156 24.084 62.14 23.71 66.176 60.226 4.204 104.801-30.53 21.96-35.89 50.33-18.828 83.212 14.963 28.835 46.938 60.487 91 91.824 79.88 56.81 189.858 104.784 236.047 104.042-45.922-.173-155.716-48.066-235.43-104.759-43.951-31.258-75.83-62.813-90.713-91.496-16.873-32.517-11.6-60.427 18.544-82.109 62.555-44.994 58.424-82.369-4.437-106.354-58.68-22.39-164.677-31.239-288.605-24.153-69.417 3.969-164.252 29.032-271.113 69.851-96.088 36.704-196.754 84.364-277.813 130.955-47.493 27.297-82.867 36.551-107.603 30.718-19.626-4.629-31.715-18.508-37.747-38.797-3.828-12.88-4.75-26.436-4.048-38.145.042-.7.087-1.316.132-1.845-1.042.465-1.088 1.089-1.13 1.796z" id="Stroke-69"/></g></g></g></g></svg>